<svg id="Layer_1" xmlns="http://www.w3.org/2000/svg" viewBox="0 0 152 54"><style>.st0{fill:#2db7ff}.st1{fill:#fff}</style><path class="st0" d="M245.6 5110c-50.3-4.9-96.7-23.4-137.4-54.8-19.9-15.3-45.6-44-60.5-67.4-6.4-10.1-18.9-35.7-23.4-47.9-5-13.6-10.4-34.6-13-50.8-3.2-19.9-3.2-57.5 0-77.4 4.6-28.1 11.8-50.7 24.1-75.8 13.4-27.4 27.4-46.8 49.8-69.3 22.5-22.4 41.9-36.3 69.3-49.8 25.1-12.3 47.7-19.5 75.8-24.1 19.9-3.2 57.5-3.2 77.4 0 28.1 4.6 50.7 11.8 75.8 24.1 27.4 13.4 46.8 27.4 69.3 49.8 22.4 22.5 36.3 41.9 49.8 69.3 9 18.2 13.4 30.1 18.3 48.5 6.4 24.4 7.9 37.8 7.9 66.1s-1.5 41.6-7.9 66.1c-4.9 18.3-9.4 30.2-18.3 48.5-13.4 27.4-27.4 46.8-49.8 69.3-22.5 22.4-41.9 36.3-69.3 49.8-25 12.3-48.3 19.6-75.3 23.9-15 2.2-48.4 3.3-62.6 1.9zm55.4-23.9c52.2-7.3 98.9-30.5 136-67.7 37.9-37.8 61.1-85.2 68.3-139.5 1.6-12.4 1.6-44.6 0-57-7.2-54.3-30.4-101.7-68.3-139.5-37.8-37.9-85.2-61.1-139.5-68.3-12.4-1.6-44.6-1.6-57 0-54.3 7.2-101.7 30.4-139.5 68.3-37.9 37.8-61.1 85.2-68.3 139.5-1.6 12.4-1.6 44.6 0 57 7.2 54.3 30.4 101.7 68.3 139.5 41.4 41.4 91.8 64.3 153.7 69.6 8.3.7 35.7-.4 46.3-1.9z" transform="matrix(.1 0 0 -.1 0 512)"/><path class="st0" d="M261.7 5062.3l-3.4-3-.3-14.8c-.3-12 0-15.4 1.2-17.9 1.7-3.4 6.3-6.2 9.8-6.2s8 2.9 9.8 6.2c1.2 2.5 1.5 5.9 1.2 17.9l-.3 14.8-3.4 3c-2.4 2.2-4.3 3-7.3 3s-4.9-.8-7.3-3zM205.3 5040.7c-8.9-8.8-13.9-14.7-14.7-16.8-2.4-7.2 3.2-14.7 10.9-14.7 4.1 0 9.9 4.6 22.4 17.6 12.2 12.6 13.7 17.7 7.2 24.1-2.4 2.4-3.9 3.1-7.6 3.1-4.5 0-4.8-.2-18.2-13.3zM306.9 5051c-6.6-6.6-5-11.5 8.2-25.2 12.5-12.8 17.2-16.5 21.5-16.5 7.6 0 13.2 7.5 10.8 14.7-.7 2.1-5.8 8-14.7 16.8-13.4 13.1-13.7 13.3-18.2 13.3-3.8-.1-5.2-.7-7.6-3.1zM150.9 5007.5c-3-1.5-4.7-4-10.4-15.1-5.1-9.9-6.8-14.3-6.9-17.4-.1-10.1 11-14.7 18.7-7.7 1 .9 4.6 7.2 8 13.9 7.3 14.7 7.9 19.2 3.2 23.9-3.9 3.8-8.1 4.6-12.6 2.4zM379.3 5008.5c-1.2-.2-3.5-1.7-5-3.4-4.7-4.9-4.1-9.4 3.3-23.9 3.5-6.7 7-13 8-13.9 7.6-6.8 18.7-2.3 18.7 7.4 0 4.9-12 29.6-15.5 31.9-2.6 1.7-6.5 2.5-9.5 1.9zM267 4997.3c-8.1-2.5-9.2-5-9.2-22.2 0-15.7.9-18.6 6.5-21.3 4.3-2 5.1-2 9.4 0 5.6 2.6 6.5 5.6 6.5 21.3 0 15-.9 18.4-5.3 20.6-3.3 1.6-6.1 2.2-7.9 1.6zM205.6 4983.8c-2.6-2.1-14.1-23.6-15.4-28.9-2.4-10 10.4-17.9 17.9-11.1 3.7 3.3 15.1 27.3 15.1 31.8 0 6-4.4 10.3-10.5 10.3-3-.1-5.4-.8-7.1-2.1zM318 4982.7c-4.9-4.9-4.4-8.7 3.4-24.1 3.6-7.1 7.4-13.7 8.6-14.8 7.5-6.8 20.4 1.1 17.9 11.1-1.2 5.3-12.7 26.8-15.4 28.9-4.3 3.2-10.7 2.7-14.5-1.1zM161.4 4939c-4.5-2.6-16.6-26.5-16.6-32.5 0-8.7 10.8-13.5 17.7-8.1 3.1 2.4 14.4 24.1 15.4 29.6.9 4.9-1.6 9.7-6.1 11.6-4.7 1.9-6.5 1.8-10.4-.6zM366 4939.5c-3.5-1.5-6.4-6-6.4-10 0-3.8 12.6-28.6 15.8-31 5.3-4.2 13.6-2.4 16.7 3.6 2.2 4.3 1.1 8.4-5.5 21.7-8.5 16.7-12 19.5-20.6 15.7zM258.8 4906.7c-22.9-1-45.2-4.9-54.7-9.6-11.1-5.4-27.9-24.3-37.7-42.3-3.9-7.1-4-7.2-6.4-5.8-5.2 2.9-15.8 5.8-20.8 5.8-12.7 0-19-8-16.9-21.2 1.4-8.4 5.4-16 12.2-23l5.8-6-1.9-6.8c-3.6-13-5-23.9-5-39.1 0-24.9 3.3-45.2 9.3-56.9 1.6-3.3 2-6.1 2-15.5 0-12.8 1.4-17.4 6.7-22.4 5.5-5.1 9.1-5.9 26.9-5.9s21.4.8 26.9 5.9c4.4 4.2 6.7 10 6.7 17.3 0 7.2-.2 7.1 9.7 4.9 28.7-6.8 66-6.8 94.7 0 9.9 2.2 9.7 2.3 9.7-4.9 0-7.3 2.3-13.1 6.7-17.3 5.5-5.1 9.1-5.9 26.9-5.9s21.4.8 26.9 5.9c5.3 5 6.7 9.6 6.7 22.4 0 9.4.4 12.2 2 15.5 10.5 20.6 12.5 66.4 4.3 96l-1.9 6.8 5.8 6c6.8 7 10.8 14.6 12.2 23 2.1 13.1-4.2 21.2-16.9 21.2-5 0-15.6-3-20.8-5.8-2.4-1.4-2.5-1.3-6.4 5.8-9.8 18.1-26.5 37-37.7 42.3-12.6 6.3-48.4 10.8-75 9.6zm38.7-24.2c22-2.7 25.7-4 32.6-10.4 10.6-9.8 23.3-28.8 27.9-41.7l1.4-4.1-15.9-2.1c-46.4-6.3-51.2-6.7-74.5-6.7s-28.1.4-74.5 6.7l-15.9 2.1 1.4 4.1c4.6 12.9 17.3 32 27.9 41.7 5.4 5 6.9 5.8 13.4 7.3 20.7 4.6 53.3 5.8 76.2 3.1zm-146.1-55.3c-.3-.3-1.1 0-1.8.7-.9 1-.8 1.1.6.5 1-.3 1.5-.9 1.2-1.2zm237.2.8c-.3-.5-1.2-1-1.8-1-.7 0-.6.4.3 1 1.9 1.3 2.3 1.3 1.5 0zm-12.2-32.2c.5-1.9.2-2.3-1.5-2.3-1.2 0-6.8-.9-12.4-2-13.6-2.9-23.7-7.6-29.7-14.4-5-5.5-6.7-10-6.7-17.1 0-3.7.6-5 3.5-7.8 6.4-6.4 15.6-3.7 18.2 5.4 1.1 4 2.1 5.3 5.4 7.1 4.3 2.4 14 5 23.1 6l5.8.6v-13.8c0-13.7-1.8-29.5-4.4-38.3l-1.3-4.6-20.4-.1c-19.2-.1-21.1-.3-32.6-3.3-39.6-10.2-69.1-10.2-108.7 0-11.5 3-13.3 3.2-32.6 3.3l-20.4.1-1.3 4.6c-2.5 8.8-4.4 24.5-4.4 38.3v13.8l6.4-.7c8.2-.9 17.4-3.3 22.2-5.7 3.1-1.5 4.1-2.9 5.5-7.1 3.2-9.4 12-12 18.4-5.6 2.9 2.9 3.5 4.2 3.5 7.9 0 7-1.7 11.5-6.7 17-6 6.7-16.1 11.5-29.7 14.4-5.6 1.1-11.2 2-12.4 2-2.3 0-2.2.9.6 7.9 1.6 4 1 4 24.6.7 38.7-5.3 64.6-7.8 80.6-7.8 16.3 0 42.3 2.5 83 8.2l20.4 2.7 1.6-3.6c.9-2 2-4.6 2.4-5.8zM189.6 4686v-5.6h-22.4v11.2h22.4v-5.6zm181.2 0v-5.6h-22.4v11.2h22.4v-5.6z" transform="matrix(.1 0 0 -.1 0 512)"/><path class="st0" d="M241.9 4770c-3.7-1.5-6.5-6-6.5-10.4 0-3.3.7-4.8 3.5-7.5l3.5-3.5h53.3l3.5 3.5c4.7 4.7 4.9 10.3.5 15.1l-3 3.4-26.4.2c-14.4 0-27.3-.3-28.4-.8z" transform="matrix(.1 0 0 -.1 0 512)"/><g><path class="st1" d="M61.8 24.3l3.7-15.1h4.9l3.7 15.1h-2.5l-.7-3.3h-5.8l-.8 3.2h-2.5zm5.6-13.1l-1.9 7.6h4.8l-1.8-7.6h-1.1zM82.7 13.3H85v11h-2.4v-.7c-1.1.6-2.1.9-3 .9-1.5 0-2.5-.4-3-1.2s-.7-2.3-.7-4.3v-5.7h2.4V19c0 1.3.1 2.2.3 2.7.2.5.7.7 1.5.7s1.5-.1 2.2-.4l.3-.1v-8.6zM93.9 15.3h-3v4.8c0 .9.1 1.5.2 1.8.1.3.5.4 1 .4l1.8-.1.1 1.9c-1 .2-1.7.3-2.2.3-1.2 0-2.1-.3-2.6-.9-.5-.6-.7-1.6-.7-3.2v-5.1H87v-2h1.4V10h2.4v3.2h3v2.1zM96.4 14.4c.8-1 2-1.4 3.8-1.4s3 .5 3.8 1.4c.8 1 1.1 2.4 1.1 4.3s-.4 3.3-1.1 4.3c-.7 1-2 1.5-3.8 1.5s-3.1-.5-3.8-1.5c-.7-1-1.1-2.4-1.1-4.3s.4-3.3 1.1-4.3zm1.8 7.2c.3.6 1 .9 2 .9s1.6-.3 2-.9c.3-.6.5-1.5.5-2.9 0-1.3-.2-2.3-.5-2.8-.4-.6-1-.8-1.9-.8s-1.6.3-1.9.8-.5 1.5-.5 2.8c-.2 1.3 0 2.3.3 2.9zM117.1 25.7c0 2.4-1.7 3.6-5.2 3.6-1.7 0-2.9-.2-3.7-.7s-1.2-1.3-1.2-2.5c0-.5.1-1 .4-1.4.3-.4.7-.8 1.3-1.3-.5-.3-.7-.9-.7-1.6 0-.3.2-.8.6-1.4l.2-.3c-1.1-.6-1.6-1.7-1.6-3.3 0-1.3.4-2.3 1.2-2.9.8-.6 1.9-.9 3.2-.9.6 0 1.3.1 1.9.2l.3.1 3.4-.1v1.9l-1.8-.1c.4.5.6 1.1.6 1.8 0 1.4-.4 2.4-1.1 3-.7.6-1.9.8-3.4.8-.4 0-.7 0-1-.1-.2.5-.3.9-.3 1.2 0 .3.1.5.4.6.3.1.9.2 2 .2 1.7 0 2.9.3 3.6.7.6.4.9 1.3.9 2.5zm-7.8.3c0 .5.2.9.6 1.1.4.2 1.1.3 2.1.3 1.8 0 2.7-.5 2.7-1.5 0-.6-.2-.9-.5-1.1-.3-.2-.9-.2-1.9-.3l-2.2-.1-.7.7c0 .3-.1.5-.1.9zm.7-7.7c.3.3.8.5 1.6.5s1.2-.2 1.6-.5c.3-.3.5-.8.5-1.5s-.2-1.2-.5-1.5c-.3-.3-.8-.5-1.6-.5-1.3 0-2 .7-2 2-.1.7 0 1.2.4 1.5zM119.2 24.3V8.7h2.4v15.6h-2.4zM125.2 14.4c.8-1 2-1.4 3.8-1.4s3 .5 3.8 1.4c.8 1 1.1 2.4 1.1 4.3s-.4 3.3-1.1 4.3c-.7 1-2 1.5-3.8 1.5s-3.1-.5-3.8-1.5c-.7-1-1.1-2.4-1.1-4.3s.4-3.3 1.1-4.3zm1.8 7.2c.3.6 1 .9 2 .9s1.6-.3 2-.9c.3-.6.5-1.5.5-2.9 0-1.3-.2-2.3-.5-2.8-.4-.6-1-.8-1.9-.8s-1.6.3-1.9.8-.5 1.5-.5 2.8c-.2 1.3 0 2.3.3 2.9zM135.4 13.3h2.4l1.7 9h.4l2.1-8.7h2.5l2.1 8.7h.4l1.7-9h2.4l-2.3 11H145l-1.7-7.5-1.7 7.5h-3.8l-2.4-11zM68.2 46.5c-2.2 0-3.7-.6-4.5-1.8-.8-1.2-1.2-3.2-1.2-6s.4-4.8 1.2-6 2.3-1.8 4.5-1.8c1.3 0 2.7.2 4.3.6l-.1 2c-1.3-.2-2.6-.4-4-.4s-2.2.4-2.7 1.2c-.5.8-.7 2.3-.7 4.4 0 2.2.2 3.6.7 4.4.5.8 1.3 1.2 2.7 1.2s2.7-.1 4-.3l.1 2c-1.5.3-3 .5-4.3.5zM82.9 38.6v5c0 .3.1.6.3.7.2.2.4.3.7.3l-.1 1.8c-1.3 0-2.2-.3-2.9-.8-1.2.5-2.4.8-3.5.8-2.2 0-3.3-1.2-3.3-3.5 0-1.1.3-1.9.9-2.4.6-.5 1.5-.8 2.7-.9l2.8-.2v-.8c0-.6-.1-1-.4-1.2s-.6-.4-1.1-.4c-.9 0-2.1.1-3.5.2h-.7l-.1-1.7c1.6-.4 3.1-.6 4.4-.6s2.3.3 2.9.9c.6.7.9 1.6.9 2.8zM78 41.4c-1 .1-1.5.6-1.5 1.6s.4 1.5 1.3 1.5c.7 0 1.5-.1 2.3-.4l.4-.1v-2.9l-2.5.3zM85.9 46.3v-11h2.4v1.3c1.2-.8 2.5-1.3 3.7-1.6v2.4c-1.3.3-2.3.6-3.2 1l-.5.2v7.7h-2.4zM93 35.3h2.4l1.7 9h.4l2.1-8.7h2.5l2.1 8.7h.4l1.7-9h2.4l-2.3 11h-3.8l-1.7-7.5-1.7 7.5h-3.8l-2.4-11zM118.9 38.6v5c0 .3.1.6.3.7.2.2.4.3.7.3l-.1 1.8c-1.3 0-2.2-.3-2.9-.8-1.2.5-2.4.8-3.5.8-2.2 0-3.3-1.2-3.3-3.5 0-1.1.3-1.9.9-2.4.6-.5 1.5-.8 2.7-.9l2.8-.2v-.8c0-.6-.1-1-.4-1.2s-.6-.4-1.1-.4c-.9 0-2.1.1-3.5.2h-.7l-.1-1.7c1.6-.4 3.1-.6 4.4-.6s2.3.3 2.9.9c.6.7.9 1.6.9 2.8zm-4.9 2.8c-1 .1-1.5.6-1.5 1.6s.4 1.5 1.3 1.5c.7 0 1.5-.1 2.3-.4l.4-.1v-2.9l-2.5.3zM129.6 37.5c-1.7-.2-3-.4-3.8-.4s-1.3.1-1.6.3-.5.5-.5.9.2.7.5.8c.3.2 1.1.3 2.3.6s2.1.5 2.6 1 .8 1.3.8 2.4c0 1.2-.4 2-1.1 2.6-.7.5-1.8.8-3.2.8-.9 0-2-.1-3.4-.4l-.7-.1.1-2c1.8.2 3 .4 3.8.4s1.3-.1 1.7-.3c.3-.2.5-.5.5-.9s-.2-.7-.5-.9c-.3-.2-1.1-.4-2.3-.5s-2.1-.5-2.6-.9c-.6-.4-.8-1.2-.8-2.3 0-1.1.4-2 1.2-2.5.8-.6 1.8-.8 3-.8.9 0 2.1.1 3.5.4l.7.1-.2 1.7zM134.7 46.3h-2.4V30.7h2.4v5.1c1.1-.5 2.1-.8 3-.8 1.5 0 2.5.4 3 1.2.5.8.8 2.2.8 4.1v5.9h-2.4v-5.8c0-1.2-.1-2-.4-2.5-.3-.5-.8-.7-1.6-.7-.7 0-1.4.1-2.1.4l-.4.1v8.6z"/></g></svg>